<?xml version="1.0" ?><svg id="Layer_1" style="enable-background:new 0 0 62 62;" version="1.1" viewBox="0 0 62 62" xml:space="preserve" xmlns="http://www.w3.org/2000/svg" xmlns:xlink="http://www.w3.org/1999/xlink"><style type="text/css">
	.st0{fill:#5FD2FF;}
	.st1{fill:#FFFFFF;}
	.st2{fill:#0082ED;}
	.st3{fill:#2BA8FC;}
	.st4{fill:#CECECE;}
	.st5{fill:#F92B75;}
	.st6{fill:#3BB0FF;}
	.st7{fill:#CE004F;}
	.st8{fill:none;stroke:#ED0C68;stroke-width:5;stroke-linecap:round;stroke-linejoin:round;stroke-miterlimit:10;}
	.st9{fill:#ED0C68;}
	.st10{fill:#78DED4;}
	.st11{fill:#1E5363;}
	.st12{fill:#54C8E8;}
	.st13{fill:#F4F4F4;}
	.st14{fill:#0C82EB;}
	.st15{fill:#00B2E3;}
	.st16{fill:#68A2B9;}
	.st17{fill:#A2C5D3;}
	.st18{fill:#76777A;}
	.st19{fill:#A7A8A9;}
	.st20{fill:#D6D6D6;}
	.st21{fill:none;stroke:#F92B75;stroke-width:5;stroke-linecap:round;stroke-linejoin:round;stroke-miterlimit:10;}
	.st22{fill:#FD4A5C;}
	.st23{fill:#FF8E9F;}
	.st24{fill:none;stroke:#F458A3;stroke-width:5;stroke-linecap:round;stroke-linejoin:round;stroke-miterlimit:10;}
	.st25{fill:#FFB259;}
	.st26{fill:#F32735;}
	.st27{fill:#FF9E18;}
	.st28{fill:#FFC27A;}
	.st29{fill:#FFC56D;}
	.st30{fill:none;stroke:#FD4A5C;stroke-width:5;stroke-linecap:round;stroke-linejoin:round;stroke-miterlimit:10;}
	.st31{fill:#0069A7;}
	.st32{fill:#D8D8D8;}
	.st33{fill:#8CB7C9;}
	.st34{fill:#65BAAF;}
	.st35{fill:#00AF9A;}
	.st36{fill:#00C4B3;}
	.st37{fill:#19D3C5;}
	.st38{fill:none;stroke:#54C8E8;stroke-width:5;stroke-linecap:round;stroke-linejoin:round;stroke-miterlimit:10;}
	.st39{fill:#8331A7;}
	.st40{fill:#009383;}
	.st41{fill:#98989A;}
	.st42{fill:#636569;}
	.st43{fill:#898A8D;}
	.st44{fill:#FFB548;}
	.st45{fill:none;stroke:#FFB548;stroke-width:5;stroke-linecap:round;stroke-linejoin:round;stroke-miterlimit:10;}
	.st46{fill:#ED40A9;}
	.st47{fill:#CB007B;}
	.st48{fill:#E50695;}
	.st49{fill:#D7282F;}
	.st50{fill:#E5E5E5;}
	.st51{fill:#FFA4B4;}
	.st52{fill:#F6A7D7;}
	.st53{fill:#F478C4;}
	.st54{fill:#E0C7E6;}
	.st55{fill:#B980D0;}
	.st56{fill:#D9B7E2;}
	.st57{fill:#BADF93;}
	.st58{fill:#4C9C2E;}
	.st59{fill:#3DAE2B;}
	.st60{fill:#AADA91;}
	.st61{fill:#6ABF4B;}
	.st62{fill:#EFB8A9;}
	.st63{fill:#FECB8B;}
	.st64{fill:#BDE8EF;}
	.st65{fill:#CCA1DD;}
	.st66{fill:#B2B2B2;}
	.st67{fill:none;stroke:#FF8300;stroke-width:5;stroke-linecap:round;stroke-linejoin:round;stroke-miterlimit:10;}
	.st68{fill:none;stroke:#FF9E18;stroke-width:5;stroke-linecap:round;stroke-linejoin:round;stroke-miterlimit:10;}
	.st69{fill:#96DAEA;}
	.st70{fill:#FF8300;}
	.st71{fill:none;stroke:#6ABF4B;stroke-width:5;stroke-linecap:round;stroke-linejoin:round;stroke-miterlimit:10;}
	.st72{fill:none;}
	.st73{fill:#444444;}
	.st74{fill:#FDCF85;}
</style><g><path class="st0" d="M27.11,31L27.11,31c0,4.34-3.52,7.86-7.86,7.86h-8.89c-4.34,0-7.86-3.52-7.86-7.86v0   c0-4.34,3.52-7.86,7.86-7.86h8.89C23.6,23.14,27.11,26.66,27.11,31z"/><path class="st14" d="M19.25,41.36h-8.89C4.65,41.36,0,36.71,0,31s4.65-10.36,10.36-10.36h8.89c5.71,0,10.36,4.65,10.36,10.36   S24.97,41.36,19.25,41.36z M10.36,25.64C7.4,25.64,5,28.04,5,31s2.4,5.36,5.36,5.36h8.89c2.96,0,5.36-2.4,5.36-5.36   s-2.4-5.36-5.36-5.36H10.36z"/><path class="st15" d="M2.5,33.5C1.12,33.5,0,32.38,0,31c0-5.71,4.65-10.36,10.36-10.36c1.38,0,2.5,1.12,2.5,2.5s-1.12,2.5-2.5,2.5   C7.4,25.64,5,28.04,5,31C5,32.38,3.88,33.5,2.5,33.5z"/><path class="st29" d="M31,59.5L31,59.5c-4.34,0-7.86-3.52-7.86-7.86v-8.89c0-4.34,3.52-7.86,7.86-7.86h0   c4.34,0,7.86,3.52,7.86,7.86v8.89C38.86,55.98,35.34,59.5,31,59.5z"/><path class="st27" d="M31,62c-5.71,0-10.36-4.65-10.36-10.36v-8.89c0-5.71,4.65-10.36,10.36-10.36s10.36,4.65,10.36,10.36v8.89   C41.36,57.35,36.71,62,31,62z M31,37.38c-2.96,0-5.36,2.41-5.36,5.36v8.89c0,2.96,2.4,5.36,5.36,5.36s5.36-2.41,5.36-5.36v-8.89   C36.36,39.79,33.96,37.38,31,37.38z"/><path class="st29" d="M31,27.11L31,27.11c-4.34,0-7.86-3.52-7.86-7.86v-8.89c0-4.34,3.52-7.86,7.86-7.86h0   c4.34,0,7.86,3.52,7.86,7.86v8.89C38.86,23.6,35.34,27.11,31,27.11z"/><path class="st27" d="M31,29.61c-5.71,0-10.36-4.65-10.36-10.36v-8.89C20.64,4.65,25.29,0,31,0s10.36,4.65,10.36,10.36v8.89   C41.36,24.97,36.71,29.61,31,29.61z M31,5c-2.96,0-5.36,2.4-5.36,5.36v8.89c0,2.96,2.4,5.36,5.36,5.36s5.36-2.4,5.36-5.36v-8.89   C36.36,7.4,33.96,5,31,5z"/><path class="st44" d="M23.14,12.86c-1.38,0-2.5-1.12-2.5-2.5C20.64,4.65,25.29,0,31,0c1.38,0,2.5,1.12,2.5,2.5S32.38,5,31,5   c-2.96,0-5.36,2.4-5.36,5.36C25.64,11.74,24.52,12.86,23.14,12.86z"/><path class="st0" d="M59.5,31L59.5,31c0,4.34-3.52,7.86-7.86,7.86h-8.89c-4.34,0-7.86-3.52-7.86-7.86v0c0-4.34,3.52-7.86,7.86-7.86   h8.89C55.98,23.14,59.5,26.66,59.5,31z"/><path class="st14" d="M51.64,41.36h-8.89c-5.71,0-10.36-4.65-10.36-10.36s4.65-10.36,10.36-10.36h8.89C57.35,20.64,62,25.29,62,31   S57.35,41.36,51.64,41.36z M42.75,25.64c-2.96,0-5.36,2.4-5.36,5.36s2.4,5.36,5.36,5.36h8.89c2.96,0,5.36-2.4,5.36-5.36   s-2.4-5.36-5.36-5.36H42.75z"/><path class="st22" d="M51.15,51.15L51.15,51.15c-3.07,3.07-8.05,3.07-11.12,0l-6.29-6.29c-3.07-3.07-3.07-8.05,0-11.12l0,0   c3.07-3.07,8.05-3.07,11.12,0l6.29,6.29C54.22,43.11,54.22,48.08,51.15,51.15z"/><path class="st10" d="M28.25,33.75L28.25,33.75c3.07,3.07,3.07,8.05,0,11.12l-6.29,6.29c-3.07,3.07-8.05,3.07-11.12,0l0,0   c-3.07-3.07-3.07-8.05,0-11.12l6.29-6.29C20.21,30.68,25.18,30.68,28.25,33.75z"/><path class="st35" d="M16.41,55.96c-2.77,0-5.37-1.08-7.33-3.04c-1.96-1.96-3.03-4.56-3.03-7.33s1.08-5.37,3.03-7.33l6.29-6.29   c1.96-1.96,4.56-3.03,7.33-3.03c2.77,0,5.37,1.08,7.33,3.03h0c4.04,4.04,4.04,10.61,0,14.65l-6.29,6.29   C21.78,54.88,19.17,55.96,16.41,55.96z M22.69,33.95c-1.37,0-2.75,0.52-3.79,1.57l-6.29,6.29c-1.01,1.01-1.57,2.36-1.57,3.79   c0,1.43,0.56,2.78,1.57,3.79c1.01,1.01,2.36,1.57,3.79,1.57c1.43,0,2.78-0.56,3.79-1.57l6.29-6.29c2.09-2.09,2.09-5.49,0-7.58   C25.44,34.47,24.07,33.95,22.69,33.95z"/><path class="st12" d="M10.85,53.65c-0.64,0-1.28-0.24-1.77-0.73c-1.96-1.96-3.03-4.56-3.03-7.33s1.08-5.37,3.03-7.33   c0.98-0.98,2.56-0.98,3.54,0c0.98,0.98,0.98,2.56,0,3.54c-1.01,1.01-1.57,2.36-1.57,3.79c0,1.43,0.56,2.78,1.57,3.79   c0.98,0.98,0.98,2.56,0,3.54C12.13,53.41,11.49,53.65,10.85,53.65z"/><path class="st26" d="M45.59,55.96c-2.77,0-5.37-1.08-7.33-3.04l-6.29-6.29c-4.04-4.04-4.04-10.61,0-14.65   c1.96-1.96,4.56-3.03,7.33-3.03c2.77,0,5.37,1.08,7.33,3.03l6.29,6.29c1.96,1.96,3.03,4.56,3.03,7.33s-1.08,5.37-3.03,7.33l0,0   c0,0,0,0,0,0C50.96,54.88,48.36,55.96,45.59,55.96z M39.31,33.95c-1.37,0-2.75,0.52-3.79,1.57c-2.09,2.09-2.09,5.49,0,7.58   l6.29,6.29c1.01,1.01,2.36,1.57,3.79,1.57c1.43,0,2.78-0.56,3.79-1.57c0,0,0,0,0,0c1.01-1.01,1.57-2.36,1.57-3.79   c0-1.43-0.56-2.78-1.57-3.79l-6.29-6.29C42.05,34.47,40.68,33.95,39.31,33.95z"/><path class="st22" d="M28.25,28.25L28.25,28.25c-3.07,3.07-8.05,3.07-11.12,0l-6.29-6.29c-3.07-3.07-3.07-8.05,0-11.12l0,0   c3.07-3.07,8.05-3.07,11.12,0l6.29,6.29C31.32,20.21,31.32,25.18,28.25,28.25z"/><path class="st10" d="M51.15,10.85L51.15,10.85c3.07,3.07,3.07,8.05,0,11.12l-6.29,6.29c-3.07,3.07-8.05,3.07-11.12,0l0,0   c-3.07-3.07-3.07-8.05,0-11.12l6.29-6.29C43.11,7.78,48.08,7.78,51.15,10.85z"/><path class="st35" d="M39.31,33.05c-2.77,0-5.37-1.08-7.33-3.03c-1.96-1.96-3.03-4.56-3.03-7.33c0-2.77,1.08-5.37,3.03-7.33   l6.29-6.29c1.96-1.96,4.56-3.03,7.33-3.03c2.77,0,5.37,1.08,7.33,3.03c4.04,4.04,4.04,10.61,0,14.65l-6.29,6.29   C44.68,31.98,42.07,33.05,39.31,33.05z M45.59,11.05c-1.37,0-2.75,0.52-3.79,1.57l-6.29,6.29c-2.09,2.09-2.09,5.49,0,7.58   c2.09,2.09,5.49,2.09,7.58,0l6.29-6.29c2.09-2.09,2.09-5.49,0-7.58C48.34,11.57,46.97,11.05,45.59,11.05z"/><path class="st26" d="M22.69,33.05c-2.77,0-5.37-1.08-7.33-3.03l-6.29-6.29c-4.04-4.04-4.04-10.61,0-14.65   c1.96-1.96,4.56-3.03,7.33-3.03c2.77,0,5.37,1.08,7.33,3.03l6.29,6.29c1.96,1.96,3.03,4.56,3.03,7.33c0,2.77-1.08,5.37-3.03,7.33   C28.06,31.98,25.46,33.05,22.69,33.05z M16.41,11.05c-1.37,0-2.75,0.52-3.79,1.57c-2.09,2.09-2.09,5.49,0,7.58l6.29,6.29   c2.09,2.09,5.49,2.09,7.58,0c2.09-2.09,2.09-5.49,0-7.58l-6.29-6.29C19.15,11.57,17.78,11.05,16.41,11.05z"/><path class="st23" d="M10.85,24.46c-0.64,0-1.28-0.24-1.77-0.73c-4.04-4.04-4.04-10.61,0-14.65c0.98-0.98,2.56-0.98,3.54,0   c0.98,0.98,0.98,2.56,0,3.54c-2.09,2.09-2.09,5.49,0,7.58c0.98,0.98,0.98,2.56,0,3.54C12.13,24.22,11.49,24.46,10.85,24.46z"/></g></svg>